<svg id="icon" height="512" viewBox="0 0 128 128" width="512" xmlns="http://www.w3.org/2000/svg"><path d="m73.946 35.55-71.4 71.4a5.288 5.288 0 0 0 0 7.478l2.917 2.917a5.288 5.288 0 0 0 7.479 0l71.4-71.4z" fill="#e1b378"/><g opacity=".5"><path d="m84.345 45.948-71.395 71.394a5.294 5.294 0 0 1 -7.483 0l-2.916-2.916a5.264 5.264 0 0 1 -.819-6.41 4.728 4.728 0 0 0 .593.72l2.916 2.916a5.286 5.286 0 0 0 7.476.007l68.67-68.67z" fill="#bd8d5a"/></g><path d="m9.207 119.887a6.267 6.267 0 0 1 -4.446-1.839l-2.917-2.917a6.287 6.287 0 0 1 0-8.893l72.1-72.1 11.81 11.81-72.1 72.1a6.267 6.267 0 0 1 -4.447 1.839zm64.739-82.923-70.688 70.688a4.287 4.287 0 0 0 0 6.064l2.917 2.917a4.293 4.293 0 0 0 6.064 0l70.689-70.688z" fill="#2f3a5a"/><path d="m126.247 49.4-5.733-5.733a2.5 2.5 0 0 0 -2.3-.707c-1.769.4-5.344.161-9.136-6.091l-.711-3.961a5.479 5.479 0 0 0 -1.519-2.906l-15.454-15.45s-16.711-9.352-46.633-3.544a1.693 1.693 0 0 0 -1.4 2.063 1.757 1.757 0 0 0 1.621 1.319c5.789.359 20.917 1.518 26.262 4.075a27.19 27.19 0 0 1 3.635 2.074 5.737 5.737 0 0 1 1.045 8.514l-5.505 6.281a2.186 2.186 0 0 0 .1 2.987l11.163 11.162a2.186 2.186 0 0 0 2.929.146c2.917-2.371 9.67-6.883 15.918-3.918 6.144 2.915 6.032 7.593 5.571 9.8a2.522 2.522 0 0 0 .709 2.289l5.522 5.522a2.572 2.572 0 0 0 3.637 0l10.278-10.278a2.572 2.572 0 0 0 .001-3.644z" fill="#9297ab"/><path d="m126.245 53.043-3.205 3.205a2.569 2.569 0 0 0 0-3.643l-5.732-5.732a2.516 2.516 0 0 0 -2.3-.706c-1.765.4-5.344.162-9.135-6.086l-.706-3.968a5.465 5.465 0 0 0 -1.518-2.9l-15.456-15.455s-15.893-8.888-44.434-3.958a1.464 1.464 0 0 1 -.4-.734 1.685 1.685 0 0 1 1.4-2.061c29.922-5.799 46.641 3.548 46.641 3.548l15.454 15.454a5.465 5.465 0 0 1 1.518 2.9l.706 3.968c3.791 6.248 7.37 6.481 9.135 6.086a2.516 2.516 0 0 1 2.3.706l5.732 5.732a2.576 2.576 0 0 1 0 3.644z" fill="#c8cbd2"/><path d="m114.15 65.07a3.56 3.56 0 0 1 -2.525-1.044l-5.525-5.526a3.507 3.507 0 0 1 -.98-3.2c.447-2.143.39-6.122-5.021-8.689-5.809-2.755-12.326 1.733-14.858 3.791a3.18 3.18 0 0 1 -4.267-.215l-11.161-11.159a3.194 3.194 0 0 1 -.143-4.353l5.505-6.281a4.772 4.772 0 0 0 1.146-3.74 4.7 4.7 0 0 0 -2-3.29 26.353 26.353 0 0 0 -3.5-2c-5.29-2.53-21.155-3.685-25.892-3.979a2.766 2.766 0 0 1 -2.539-2.085 2.639 2.639 0 0 1 .343-2.053 2.835 2.835 0 0 1 1.838-1.218c29.937-5.805 46.616 3.263 47.312 3.653l.219.166 15.453 15.452a6.447 6.447 0 0 1 1.8 3.437l.678 3.777c3.419 5.548 6.452 5.816 7.965 5.477a3.481 3.481 0 0 1 3.227.975l5.732 5.733a3.576 3.576 0 0 1 0 5.051l-10.281 10.276a3.561 3.561 0 0 1 -2.526 1.044zm-17.986-21.328a11.057 11.057 0 0 1 4.794 1.065c6.9 3.272 6.579 8.716 6.122 10.9a1.514 1.514 0 0 0 .437 1.377l5.522 5.522a1.575 1.575 0 0 0 2.223 0l10.278-10.272a1.574 1.574 0 0 0 0-2.223l-5.732-5.733a1.506 1.506 0 0 0 -1.375-.438c-2.049.46-6.1.223-10.21-6.548l-.1-.159-.744-4.145a4.458 4.458 0 0 0 -1.242-2.376l-15.344-15.347c-1.516-.783-17.944-8.786-45.841-3.375a.838.838 0 0 0 -.542.343.638.638 0 0 0 -.072.513.767.767 0 0 0 .709.546c6.187.384 21.168 1.558 26.631 4.17a28.381 28.381 0 0 1 3.769 2.151 6.7 6.7 0 0 1 2.858 4.69 6.773 6.773 0 0 1 -1.626 5.309l-5.505 6.281a1.189 1.189 0 0 0 .053 1.621l11.163 11.162a1.185 1.185 0 0 0 1.591.077c2.167-1.762 6.975-5.111 12.183-5.111z" fill="#2f3a5a"/></svg>